<svg width="200" height="200" viewBox="0 0 150 150" fill="none" xmlns="http://www.w3.org/2000/svg">
	<circle cx="50%" cy="50%" r="55" fill="white" />
	<g transform="translate(35, 35)">
		<path
			d="M71.9081 0.553644C53.186 13.424 61.1015 20.1281 57.5431 20.2562C53.9936 20.6306 45.4353 18.9105 44.9754 17.5567C41.0377 7.14646 62.2747 3.23008 71.7565 0.147987L71.9081 0.553644Z"
			fill="#271F1D"></path>
		<path
			d="M12.6571 6.38659C9.09702 17.8889 25.0419 19.2335 21.137 21.1556C14.5392 24.4079 9.99317 23.7493 9.37566 18.016C3.37565 26.4543 10.6895 45.3764 5.78438 40.0714C-4.29734 30.2935 3.99429 15.4689 12.6768 6.93403L12.6571 6.38659Z"
			fill="#271F1D"></path>
		<path
			d="M33.9718 80.7344C33.4605 73.7639 41.8977 72.5009 39.565 68.6107C36.0587 62.5702 21.7627 68.9638 17.5933 67.3461C20.8063 72.849 21.922 77.1941 33.1408 80.4903L33.9718 80.7344Z"
			fill="#271F1D"></path>
		<path
			d="M35.5742 22.4927C15.0474 23.2988 3.41722 42.8357 15.1544 64.3394C16.91 67.4281 30.1623 62.4972 41.19 64.2929C48.6347 65.5323 57.7661 67.9444 65.9975 68.1962C69.9778 68.3681 74.0712 64.0685 73.0492 62.3238C60.2664 42.2282 65.2098 31.0871 58.0821 27.2325C51.5067 23.4951 42.8253 22.1632 35.9872 22.5464L35.5742 22.4927Z"
			fill="#271F1D"></path>
		<path
			d="M64.4244 62.5658C64.4244 62.5658 64.0478 61.6201 63.4259 61.0943C63.2929 60.9798 63.1579 60.8847 63.0607 60.8471C62.5742 60.659 61.6748 60.4173 60.4238 59.9279C59.2833 59.4619 58.0543 58.821 57.0653 57.9932C56.5138 57.5197 56.0566 57.0017 55.6923 56.3982C55.214 55.6754 54.9811 54.9163 54.893 54.3714C54.9762 54.9302 55.1036 55.6519 55.4372 56.5444C55.6793 57.1798 56.0309 57.8112 56.4915 58.425C57.3575 59.6409 58.4914 60.6826 59.6158 61.4644C60.7701 62.3136 61.8598 62.891 62.2753 63.0131C62.3962 63.0595 62.5656 63.0835 62.7576 63.0876C63.6489 63.1021 64.5176 62.4898 64.5176 62.4898L64.4244 62.5658Z"
			fill="#FF9E3D"></path>
	</g>
</svg>